<?xml version="1.0" encoding="UTF-8"?>
<svg id="Layer_2" data-name="Layer 2" xmlns="http://www.w3.org/2000/svg" xmlns:xlink="http://www.w3.org/1999/xlink" viewBox="0 0 251.39 183.36">
  <defs>
    <style>
      .cls-1 {
        fill: none;
      }

      .cls-2 {
        fill: url(#linear-gradient-8);
      }

      .cls-3 {
        fill: url(#linear-gradient-7);
      }

      .cls-4 {
        fill: url(#linear-gradient-5);
      }

      .cls-5 {
        fill: url(#linear-gradient-6);
      }

      .cls-6 {
        fill: url(#linear-gradient-9);
      }

      .cls-7 {
        fill: url(#linear-gradient-4);
      }

      .cls-8 {
        fill: url(#linear-gradient-3);
      }

      .cls-9 {
        fill: url(#linear-gradient-2);
      }

      .cls-10 {
        fill: url(#linear-gradient);
      }

      .cls-11 {
        clip-path: url(#clippath-10);
      }

      .cls-12 {
        clip-path: url(#clippath-1);
      }

      .cls-13 {
        clip-path: url(#clippath-3);
      }

      .cls-14 {
        clip-path: url(#clippath-4);
      }

      .cls-15 {
        clip-path: url(#clippath-2);
      }

      .cls-16 {
        clip-path: url(#clippath-7);
      }

      .cls-17 {
        clip-path: url(#clippath-6);
      }

      .cls-18 {
        clip-path: url(#clippath-9);
      }

      .cls-19 {
        clip-path: url(#clippath-8);
      }

      .cls-20 {
        clip-path: url(#clippath-5);
      }

      .cls-21 {
        fill: #fff;
      }

      .cls-22 {
        fill: url(#linear-gradient-10);
      }

      .cls-23 {
        fill: url(#linear-gradient-11);
      }

      .cls-24 {
        clip-path: url(#clippath);
      }
    </style>
    <clipPath id="clippath">
      <path class="cls-1" d="M236.5,67.72c-1.97,1.57-2.57,3.99-1.41,5.5,1.16,1.46,3.69,1.41,5.65-.1,1.97-1.57,2.57-3.99,1.41-5.5-.57-.71-1.45-1.06-2.44-1.06-1.04,0-2.2.39-3.21,1.17M226.96,60.4c-3.79,3.23-7.83,7.26-12.31,11.05-3.48,2.98-6.46,2.17-3.63-1.87,3.48-4.94-.26-9.23-6.26-2.83-5.91,6.41-26.04,28.11-25.84,12.67-.1,3.33-.51,14.83,1.97,21.3,1.82,4.94,4.79,5.85,9.24,2.62,11.96-9.64,31.38-27.35,40.32-39.57,2.41-3.26,2.64-5.79.91-5.79-.92,0-2.39.71-4.39,2.41M226.31,46.82c-2.27,1.46-4.85,3.79-6.31,4.99-5.45,4.39-3.18,8.17,2.87,4.49,2.98-1.82,5.65-3.99,7.32-5.7,2.52-2.63,2.04-5.13-.29-5.14-.93,0-2.15.4-3.59,1.35M247.15,44.2c-1.92,1.31-3.99,3.33-5.2,4.34-3.13,2.62-.86,5.8,2.52,3.68,2.47-1.51,4.64-3.43,6.01-4.9,1.65-1.84.9-4.01-1-4.01-.66,0-1.45.26-2.33.88"/>
    </clipPath>
    <linearGradient id="linear-gradient" x1="4144.81" y1="3353.92" x2="4147.18" y2="3353.92" gradientTransform="translate(130015.259 -104942.0322) scale(-31.3117 31.3117)" gradientUnits="userSpaceOnUse">
      <stop offset="0" stop-color="#f7941d"/>
      <stop offset=".29" stop-color="#f05822"/>
      <stop offset=".63" stop-color="#be2026"/>
      <stop offset="1" stop-color="#4c111d"/>
    </linearGradient>
    <clipPath id="clippath-1">
      <path class="cls-1" d="M183.2,106.51c1.85,0,4.13-.98,6.92-3.17-2.64,1.99-4.97,3.04-6.92,3.17"/>
    </clipPath>
    <linearGradient id="linear-gradient-2" x1="2577.44" y1="1232.46" x2="2579.81" y2="1232.46" gradientTransform="translate(-2361.3766 -5226.9533) rotate(90) scale(2.0674 -2.0674)" gradientUnits="userSpaceOnUse">
      <stop offset="0" stop-color="#672d80"/>
      <stop offset=".49" stop-color="#c21980"/>
      <stop offset="1" stop-color="#ef5883"/>
    </linearGradient>
    <clipPath id="clippath-2">
      <path class="cls-1" d="M128,2.37c-.61-.36-1.21-.66-1.81-.91-.06-.02-.13-.04-.19-.06.05.02.09.04.14.06-.17-.04-.33-.07-.5-.1.81.25,1.6.58,2.37,1.01"/>
    </clipPath>
    <linearGradient id="linear-gradient-3" x1="6861.83" y1="1589.92" x2="6864.2" y2="1589.92" gradientTransform="translate(11195.8718 -2562.4542) scale(-1.6129 1.6129)" gradientUnits="userSpaceOnUse">
      <stop offset="0" stop-color="#00a2bf"/>
      <stop offset=".51" stop-color="#81cdbf"/>
      <stop offset="1" stop-color="#fbf9d8"/>
    </linearGradient>
    <clipPath id="clippath-3">
      <path class="cls-1" d="M94.34,8.17c-23.82,13.37-50.47,38.55-63.89,61.87-9.03,15.59-6.16,28.87.71,35.88,7.47,5.65,17.11,3.03,22.41-4.19,4.34-5.96,5.8-16.6,8.07-23.72,1.77-5.4,3.89-10.75,6.26-15.95,5.45-11.91,12.71-24.02,20.99-34.87C104.68,8.02,117.1-.56,126.13,1.45,123.86.46,121.36,0,118.66,0c-7.03,0-15.39,3.13-24.32,8.17"/>
    </clipPath>
    <linearGradient id="linear-gradient-4" x1="4070.48" y1="3403.56" x2="4072.85" y2="3403.56" gradientTransform="translate(265915.005 -222184.3486) scale(-65.2963 65.2963)" xlink:href="#linear-gradient-3"/>
    <clipPath id="clippath-4">
      <path class="cls-1" d="M88.89,27.19c-8.28,10.85-15.54,22.96-20.99,34.87-2.37,5.2-4.49,10.55-6.26,15.95-2.28,7.11-3.73,17.76-8.07,23.72-5.3,7.22-14.94,9.84-22.41,4.19,9.24,9.39,25.59,7.67,30.54-14.18.96-4.19,2.17-8.38,3.58-12.57C79.1,36.27,117-3.79,128,2.37c-.61-.36-1.21-.66-1.81-.91-.06-.02-.13-.04-.19-.06.05.02.09.04.14.06-.86-.19-1.75-.29-2.67-.29-8.76,0-20.28,8.68-34.58,26.03"/>
    </clipPath>
    <linearGradient id="linear-gradient-5" x1="4069.59" y1="3403.95" x2="4071.96" y2="3403.95" gradientTransform="translate(268241.6415 -224178.7729) scale(-65.8748 65.8748)" xlink:href="#linear-gradient-3"/>
    <clipPath id="clippath-5">
      <path class="cls-1" d="M119.42,40.92c.15,15.24-1.31,30.43-2.47,45.62-1.56,20.64-13.17,33.86-23.16,24.53.81.86,1.66,1.66,2.57,2.37,13.17,8.28,22.66-8.37,24.12-25.18.56-6.06,2.62-31.94,1.01-48.34-.81-8.15-2.58-13.81-6.81-15.14,3.12,1.32,4.64,6.31,4.74,16.15"/>
    </clipPath>
    <linearGradient id="linear-gradient-6" x1="3997.05" y1="3547.13" x2="3999.43" y2="3547.13" gradientTransform="translate(-223615.89 198556.4085) scale(55.956 -55.956)" gradientUnits="userSpaceOnUse">
      <stop offset="0" stop-color="#2d348a"/>
      <stop offset=".5" stop-color="#2492c3"/>
      <stop offset="1" stop-color="#acdee9"/>
    </linearGradient>
    <clipPath id="clippath-6">
      <path class="cls-1" d="M65.27,79.17c3.74-10.95,21.1-39.92,36.69-50.37,14.03-9.33,18.17-2.67,19.53,11.1,1.61,16.4-.45,42.29-1.01,48.34-1.46,16.81-10.95,33.46-24.12,25.18,11.56,9.13,30.99,7.17,38.15-12.37,4.54-12.26,5.8-55.21,4.89-70.85-.86-15.34-5.05-24.02-11.41-27.85-.76-.43-1.64-.63-2.64-.63-13.47,0-47.22,37.49-60.09,77.43"/>
    </clipPath>
    <linearGradient id="linear-gradient-7" x1="3974.9" y1="3548.23" x2="3977.27" y2="3548.23" gradientTransform="translate(-213859.3351 191032.6889) scale(53.8213 -53.8213)" xlink:href="#linear-gradient-6"/>
    <clipPath id="clippath-7">
      <path class="cls-1" d="M88.28,86.13c-2.62,10.65.15,19.23,5.5,24.93,9.31,8.7,20.02-2.19,22.7-20.41-.76,3.69-3.49,10.42-7.66,6.94-5.86-4.9-3.33-14.33,9.29-26.29.01-.03.03-.06.04-.09.61-7.98,1.11-15.96,1.24-23.96,0-.02-.01-.05-.02-.07-14.23,11.81-27.95,26.24-31.09,38.95M139.5,32.24h0c.21,5.15.24,12.4.05,20.34h0c23.51-17.51,36.89-21.5,40.22-12.36-1.01-13.66-4.82-21.39-13.24-21.39-6.23,0-14.99,4.23-27.04,13.41"/>
    </clipPath>
    <linearGradient id="linear-gradient-8" x1="4093.57" y1="3388.32" x2="4095.94" y2="3388.32" gradientTransform="translate(199788.3934 -165131.0077) scale(-48.7558 48.7558)" gradientUnits="userSpaceOnUse">
      <stop offset="0" stop-color="#cc81b6"/>
      <stop offset=".49" stop-color="#863c96"/>
      <stop offset="1" stop-color="#5c2d8f"/>
    </linearGradient>
    <clipPath id="clippath-8">
      <path class="cls-1" d="M118.11,71.3c-12.62,11.96-15.14,21.4-9.29,26.29-1.16-1.21-1.72-3.48-.91-6.66,1.01-4.29,5.25-9.74,9.79-14.64.02,0,.04,0,.05-.02.13-1.69.26-3.37.39-5.07-.01.03-.03.06-.04.09M139.56,52.57h0c-.04,1.47-.08,2.96-.13,4.47,3.83-3.13,6.99-5.59,9.61-7.3,18.88-12.77,30.23-15.34,30.93-6.92-.05-.91-.1-1.76-.15-2.62-.03-.13-.05-.26-.08-.39,0,.13.02.26.03.39-1.15-3.16-3.51-4.75-7.07-4.75-6.73,0-17.77,5.67-33.14,17.12"/>
    </clipPath>
    <linearGradient id="linear-gradient-9" x1="4097.3" y1="3386.02" x2="4099.68" y2="3386.02" gradientTransform="translate(192843.5729 -159150.6807) scale(-47.0218 47.0218)" xlink:href="#linear-gradient-8"/>
    <clipPath id="clippath-9">
      <path class="cls-1" d="M190.12,103.34c-4.45,3.23-7.42,2.32-9.24-2.62-2.47-6.46-2.07-17.97-1.97-21.3.3-11.86,1.57-23.92,1.06-35.73-.4,9.89-13.47,78.17,10.15,59.65"/>
    </clipPath>
    <linearGradient id="linear-gradient-10" x1="3926.74" y1="3336.99" x2="3929.11" y2="3336.99" gradientTransform="translate(-136553.5038 -160884.6557) rotate(90) scale(40.9746 -40.9746)" xlink:href="#linear-gradient-2"/>
    <clipPath id="clippath-10">
      <path class="cls-1" d="M149.04,49.75c8.23-5.35,10.9-3.13,10.39,9.54-.35,8.28-.81,17.21-.71,24.48,0,30.89,6.06,40.02,31.4,19.58-23.62,18.52-10.55-49.76-10.15-59.65v-.86c-.27-3.27-2.15-4.89-5.46-4.89-5.2,0-13.93,4-25.47,11.8"/>
    </clipPath>
    <linearGradient id="linear-gradient-11" x1="3933.81" y1="3347.54" x2="3936.18" y2="3347.54" gradientTransform="translate(-151350.6492 -178033.3539) rotate(90) scale(45.2632 -45.2632)" xlink:href="#linear-gradient-2"/>
  </defs>
  <g id="Layer_1-2" data-name="Layer 1">
    <g>
      <g class="cls-24">
        <rect class="cls-10" x="178.27" y="43.14" width="74.01" height="63.6" transform="translate(-.35 1) rotate(-.27)"/>
      </g>
      <g class="cls-12">
        <rect class="cls-9" x="183.2" y="103.34" width="6.92" height="3.17"/>
      </g>
      <g class="cls-15">
        <rect class="cls-8" x="125.63" y="1.35" width="2.37" height="1.01"/>
      </g>
      <g class="cls-13">
        <rect class="cls-7" x="21.42" y="-.56" width="104.71" height="112.13"/>
      </g>
      <g class="cls-14">
        <rect class="cls-4" x="31.15" y="-3.79" width="96.84" height="119.1"/>
      </g>
      <g class="cls-20">
        <rect class="cls-5" x="60" y="34.11" width="96.88" height="78.26" transform="translate(-12.72 122.67) rotate(-56.23)"/>
      </g>
      <g class="cls-17">
        <rect class="cls-3" x="34" y="-7.51" width="137.58" height="139.32" transform="translate(-14.57 87.75) rotate(-43.46)"/>
      </g>
      <g class="cls-16">
        <rect class="cls-2" x="85.66" y="18.82" width="94.12" height="100.94"/>
      </g>
      <g class="cls-19">
        <rect class="cls-6" x="102.97" y="34.41" width="77.01" height="63.18"/>
      </g>
      <g class="cls-18">
        <rect class="cls-22" x="166.51" y="43.69" width="23.62" height="78.17"/>
      </g>
      <g class="cls-11">
        <rect class="cls-23" x="149.04" y="37.95" width="41.08" height="85.83"/>
      </g>
      <g>
        <g>
          <path class="cls-21" d="M0,163.37v-23.15h7.91l5.07,15.21h.47l5.07-15.21h7.91v23.15h-5.95v-12.7h-.53l-4.35,12.7h-4.77l-4.35-12.7h-.52v12.7H0Z"/>
          <path class="cls-21" d="M41.52,164.14c-7.62,0-11.44-3.52-11.44-10.55v-13.37h6.25v13.2c0,1.75.43,3.1,1.29,4.05.87.96,2.16,1.43,3.89,1.43s3.03-.48,3.91-1.43c.88-.96,1.32-2.31,1.32-4.05v-13.2h6.2v13.34c0,7.06-3.81,10.58-11.43,10.58Z"/>
          <path class="cls-21" d="M56.61,163.37v-23.15h6.23v17.94h13.01v5.21h-19.24Z"/>
          <path class="cls-21" d="M97.73,140.22v5.18h-8.57v17.97h-6.2v-17.97h-8.57v-5.18h23.34Z"/>
          <path class="cls-21" d="M100.21,163.37v-23.15h6.23v23.15h-6.23Z"/>
          <path class="cls-21" d="M128.04,164.14c-3.78,0-6.86-1.14-9.23-3.43-2.37-2.29-3.56-5.26-3.56-8.92s1.19-6.63,3.56-8.92c2.37-2.29,5.45-3.43,9.23-3.43,1.4,0,2.71.16,3.94.5,1.23.33,2.39.84,3.49,1.54,1.09.7,2.02,1.68,2.77,2.95.75,1.27,1.25,2.76,1.49,4.49h-5.93c-.84-2.74-2.76-4.11-5.76-4.11-1.89,0-3.47.65-4.73,1.96-1.26,1.3-1.89,2.98-1.89,5.01s.63,3.71,1.89,5.01c1.26,1.3,2.84,1.96,4.73,1.96,2.99,0,4.91-1.39,5.76-4.16h5.93c-.24,1.73-.74,3.23-1.49,4.51-.75,1.28-1.68,2.27-2.77,2.97-1.09.71-2.26,1.23-3.49,1.56-1.23.33-2.54.5-3.94.5Z"/>
          <path class="cls-21" d="M163.93,160.71c-2.36,2.29-5.46,3.43-9.3,3.43s-6.94-1.14-9.31-3.43c-2.37-2.29-3.56-5.26-3.56-8.92s1.18-6.65,3.54-8.93c2.36-2.28,5.47-3.42,9.33-3.42s6.94,1.14,9.3,3.42c2.36,2.28,3.54,5.25,3.54,8.93s-1.18,6.63-3.54,8.92ZM154.63,158.77c1.91,0,3.5-.64,4.78-1.93,1.28-1.29,1.91-2.97,1.91-5.04s-.64-3.78-1.91-5.06c-1.28-1.28-2.87-1.91-4.78-1.91s-3.53.64-4.79,1.91c-1.27,1.28-1.9,2.96-1.9,5.06s.63,3.78,1.9,5.06c1.27,1.28,2.86,1.91,4.79,1.91Z"/>
          <path class="cls-21" d="M170.39,163.37v-23.15h6.23v17.94h13.01v5.21h-19.24Z"/>
          <path class="cls-21" d="M213.44,160.71c-2.36,2.29-5.46,3.43-9.3,3.43s-6.94-1.14-9.31-3.43c-2.37-2.29-3.56-5.26-3.56-8.92s1.18-6.65,3.54-8.93c2.36-2.28,5.47-3.42,9.33-3.42s6.94,1.14,9.3,3.42c2.36,2.28,3.54,5.25,3.54,8.93s-1.18,6.63-3.54,8.92ZM204.14,158.77c1.91,0,3.5-.64,4.78-1.93,1.28-1.29,1.91-2.97,1.91-5.04s-.64-3.78-1.91-5.06c-1.28-1.28-2.87-1.91-4.78-1.91s-3.53.64-4.79,1.91c-1.27,1.28-1.9,2.96-1.9,5.06s.63,3.78,1.9,5.06c1.27,1.28,2.86,1.91,4.79,1.91Z"/>
          <path class="cls-21" d="M242.74,163.37h-6.14l-3.56-6.58h-6.92v6.58h-6.23v-23.15h12.54c3.14,0,5.54.71,7.19,2.13,1.65,1.42,2.48,3.53,2.48,6.33,0,3.07-1.25,5.34-3.75,6.83l4.38,7.85ZM226.12,145.4v6.67h5.93c1.25,0,2.2-.28,2.86-.85.66-.57.99-1.4.99-2.48s-.33-1.91-.99-2.48-1.62-.86-2.86-.86h-5.93Z"/>
        </g>
        <g>
          <path class="cls-21" d="M10.91,172.54c-.28-.51-.64-.96-1.05-1.37-.41-.4-.88-.74-1.4-1.02-.52-.28-1.09-.49-1.71-.64-.62-.15-1.28-.22-1.98-.22H0v13.77h4.78c.7,0,1.36-.07,1.98-.22.62-.15,1.19-.36,1.71-.64.52-.28.99-.62,1.4-1.02.41-.4.76-.86,1.05-1.37.29-.51.51-1.07.66-1.68.15-.61.23-1.26.23-1.95s-.07-1.34-.23-1.95c-.15-.61-.37-1.17-.66-1.68ZM9.12,177.54c-.09.42-.23.8-.4,1.15-.18.34-.4.65-.66.91-.26.26-.55.49-.89.67-.33.18-.7.32-1.11.41-.41.09-.84.14-1.32.14h-2.25v-9.28h2.25c.47,0,.91.05,1.32.14s.78.23,1.11.41c.34.18.63.41.89.67.26.26.48.57.66.91.17.34.31.73.4,1.14.09.42.14.87.14,1.36s-.05.94-.14,1.36Z"/>
          <rect class="cls-21" x="13.81" y="169.3" width="2.53" height="13.77"/>
          <path class="cls-21" d="M29.37,176.65c-.26-.28-.56-.51-.91-.69-.35-.18-.72-.33-1.11-.45s-.79-.21-1.2-.29c-.41-.07-.81-.14-1.2-.19l-.64-.09c-.35-.05-.68-.1-.98-.15-.3-.05-.57-.11-.82-.17-.25-.06-.47-.13-.66-.21-.19-.08-.35-.18-.48-.29-.13-.11-.23-.25-.3-.4-.07-.15-.1-.33-.1-.54,0-.23.04-.44.12-.63.08-.19.2-.36.34-.51.15-.15.32-.28.52-.39.2-.11.42-.2.65-.27.23-.07.48-.13.74-.16.26-.04.52-.06.78-.06.47,0,.9.06,1.29.17.39.11.72.27,1,.48.28.21.49.46.65.75.15.29.23.62.23.99h2.45c0-.7-.13-1.34-.39-1.9-.26-.56-.64-1.04-1.12-1.43-.49-.39-1.07-.69-1.76-.9-.69-.21-1.46-.31-2.31-.31-.53,0-1.03.04-1.52.12-.49.08-.94.2-1.36.36-.42.16-.8.36-1.15.6-.34.24-.64.52-.88.83-.25.32-.43.67-.57,1.07-.14.39-.2.83-.2,1.29,0,.51.08.94.23,1.31.15.37.36.68.62.94.26.26.56.48.91.65.35.17.71.31,1.1.42.39.11.78.2,1.19.27.41.07.81.13,1.19.18l.82.12c.32.05.62.1.9.14.28.05.54.1.78.16.24.06.45.13.63.21.19.08.35.19.47.31.13.12.23.26.3.43.07.17.1.36.1.59,0,.37-.09.7-.27.97-.18.27-.43.49-.74.67-.31.18-.67.31-1.09.4-.42.09-.86.13-1.34.13-.55,0-1.04-.06-1.49-.17-.44-.11-.82-.28-1.13-.49-.31-.22-.55-.48-.71-.79-.17-.31-.25-.66-.25-1.05h-2.45c0,.74.14,1.39.41,1.97.27.58.66,1.07,1.18,1.47.52.4,1.15.7,1.9.91.75.21,1.6.31,2.56.31.88,0,1.69-.09,2.42-.27.73-.18,1.35-.45,1.87-.81s.92-.81,1.21-1.35c.29-.54.43-1.17.43-1.89,0-.53-.08-.99-.23-1.38-.15-.39-.36-.72-.62-1Z"/>
          <polygon class="cls-21" points="31.19 171.53 35.66 171.53 35.66 183.07 38.2 183.07 38.2 171.53 42.67 171.53 42.67 169.3 31.19 169.3 31.19 171.53"/>
          <path class="cls-21" d="M53.87,178.3c-.19-.27-.39-.5-.62-.68-.22-.18-.46-.32-.71-.42-.23-.08-.47-.12-.73-.13.57,0,1.09-.09,1.56-.26.49-.17.91-.42,1.26-.74.35-.32.62-.71.81-1.16.19-.45.29-.96.29-1.52,0-.62-.12-1.18-.34-1.68-.23-.5-.55-.94-.97-1.3-.42-.36-.93-.64-1.52-.84-.59-.2-1.25-.29-1.99-.29h-6.74v13.77h2.53v-5.21h2.48c.34,0,.64.02.88.07.25.05.46.12.64.23.19.11.35.25.48.43.14.18.26.4.39.67l1.72,3.82h2.8l-1.71-3.82c-.16-.35-.34-.67-.53-.94ZM50.61,175.69h-3.9v-4.2h3.89c.42,0,.79.05,1.11.14.32.09.59.22.81.4.22.18.39.39.5.65.12.25.17.55.17.88s-.06.64-.17.9c-.12.26-.29.49-.51.67-.22.18-.49.33-.81.42-.32.1-.69.15-1.09.15Z"/>
          <rect class="cls-21" x="57.9" y="169.3" width="2.53" height="13.77"/>
          <path class="cls-21" d="M73.68,176.89c-.34-.3-.75-.54-1.22-.71-.34-.12-.71-.2-1.09-.23.3-.03.58-.1.85-.21.4-.16.74-.37,1.04-.65.29-.28.52-.61.69-1,.16-.39.25-.81.25-1.27,0-.52-.11-1-.33-1.44-.22-.44-.53-.81-.93-1.11-.4-.31-.88-.55-1.44-.72-.56-.17-1.17-.25-1.85-.25h-6.8v13.77h7.05c.72,0,1.38-.09,1.98-.27.6-.18,1.11-.43,1.54-.75.43-.32.77-.71,1.01-1.17.24-.46.36-.96.36-1.52,0-.5-.1-.96-.29-1.38-.2-.42-.46-.78-.81-1.09ZM70.37,171.57c.28.08.52.2.71.35.19.15.34.34.44.55.1.22.15.47.15.75s-.05.55-.16.79c-.11.24-.26.44-.46.6-.2.16-.44.29-.71.38-.28.09-.58.14-.92.14h-4.06v-3.68h4.05c.35,0,.67.04.95.12ZM72.09,179.85c-.11.24-.27.43-.49.59-.22.16-.49.27-.81.35-.33.08-.71.12-1.14.12h-4.27v-3.78h4.27c.44,0,.82.04,1.14.12.33.08.6.19.81.35.22.15.38.35.49.58.11.24.16.51.16.83s-.05.6-.16.84Z"/>
          <path class="cls-21" d="M85.88,177.28c0,.42-.04.8-.1,1.15s-.16.67-.3.95c-.13.29-.3.54-.49.75-.19.21-.42.39-.67.54-.25.15-.54.25-.85.33-.31.07-.64.11-1.01.11s-.7-.04-1.01-.11c-.31-.07-.59-.18-.85-.33-.25-.15-.47-.33-.67-.54-.19-.22-.36-.46-.49-.75-.13-.28-.23-.6-.3-.95-.07-.35-.1-.74-.1-1.15v-7.98h-2.53v8.09c0,.62.06,1.19.19,1.73.13.54.31,1.03.55,1.47.24.44.54.84.88,1.18.35.35.74.64,1.18.87.44.24.92.42,1.45.54.52.12,1.08.19,1.68.19s1.16-.06,1.68-.19c.53-.12,1.01-.3,1.45-.54.44-.24.83-.53,1.18-.87.35-.35.64-.74.88-1.18.24-.44.43-.93.55-1.47.13-.54.19-1.11.19-1.73v-8.09h-2.53v7.98Z"/>
          <polygon class="cls-21" points="89.93 171.53 94.4 171.53 94.4 183.07 96.94 183.07 96.94 171.53 101.41 171.53 101.41 169.3 89.93 169.3 89.93 171.53"/>
          <rect class="cls-21" x="102.92" y="169.3" width="2.53" height="13.77"/>
          <path class="cls-21" d="M119.85,172.41c-.27-.53-.6-1.01-.99-1.43-.39-.42-.83-.78-1.32-1.07-.49-.29-1.02-.52-1.6-.67-.58-.15-1.19-.23-1.84-.23s-1.27.08-1.84.23c-.58.16-1.11.38-1.6.67-.49.29-.93.65-1.32,1.07s-.72.9-1,1.43c-.27.53-.48,1.12-.63,1.75-.14.63-.22,1.31-.22,2.02s.07,1.39.22,2.02c.15.63.35,1.21.63,1.74.27.53.61,1.01,1,1.43.39.42.83.78,1.32,1.07.49.29,1.02.52,1.6.67.58.15,1.19.24,1.84.24s1.26-.08,1.84-.24c.58-.15,1.11-.38,1.6-.67.49-.29.93-.65,1.32-1.07s.72-.9.99-1.43c.27-.53.48-1.11.63-1.74.15-.63.22-1.31.22-2.02s-.07-1.39-.22-2.02-.35-1.22-.63-1.75ZM118.03,177.63c-.08.45-.2.85-.36,1.22-.16.36-.35.69-.59.97-.23.28-.5.52-.8.71-.3.19-.63.34-1,.44-.37.1-.76.15-1.19.15s-.82-.05-1.19-.15c-.37-.1-.7-.24-1-.44-.3-.19-.56-.43-.8-.71-.23-.28-.43-.61-.58-.97-.16-.36-.28-.77-.36-1.22-.08-.45-.12-.93-.12-1.45s.04-1,.12-1.45c.08-.45.2-.85.36-1.22.16-.37.35-.69.58-.97.23-.28.5-.52.8-.71.3-.19.64-.34,1-.44.37-.1.76-.15,1.19-.15s.82.05,1.19.15c.37.1.7.25,1,.44.3.19.57.43.8.71.23.28.43.6.59.97.16.36.28.77.36,1.22.08.45.13.93.13,1.45s-.04,1-.13,1.45Z"/>
          <polygon class="cls-21" points="132.7 180.46 126.81 169.3 122.73 169.3 122.73 183.07 125.17 183.07 125.17 171.3 131.35 183.07 135.14 183.07 135.14 169.3 132.7 169.3 132.7 180.46"/>
          <path class="cls-21" d="M143.92,173.51c.16-.37.35-.69.58-.97s.5-.52.8-.71c.3-.19.63-.34,1-.44.36-.1.76-.15,1.18-.15.52,0,.98.07,1.4.22.41.15.78.37,1.09.66.32.29.58.65.79,1.09.21.44.37.94.47,1.52h2.53c-.14-.89-.39-1.69-.74-2.4-.36-.71-.81-1.31-1.34-1.81-.54-.49-1.17-.87-1.87-1.13-.71-.26-1.48-.39-2.33-.39-.64,0-1.26.08-1.84.23-.58.16-1.11.38-1.6.67-.48.29-.92.65-1.31,1.07-.39.42-.72.9-1,1.43-.27.53-.48,1.12-.63,1.75-.14.63-.22,1.31-.22,2.02s.07,1.39.22,2.02c.15.63.35,1.21.63,1.74.27.53.61,1.01,1,1.43.39.42.83.78,1.31,1.07.49.29,1.02.52,1.6.67.58.15,1.19.24,1.84.24.85,0,1.62-.13,2.33-.39.71-.26,1.33-.64,1.87-1.14.54-.49.99-1.09,1.34-1.8.35-.71.6-1.51.74-2.4h-2.53c-.1.57-.26,1.08-.47,1.51-.21.44-.48.8-.79,1.09-.31.29-.68.51-1.09.66-.42.15-.88.22-1.4.22-.42,0-.82-.05-1.18-.15-.37-.1-.7-.24-1-.44-.3-.19-.56-.43-.8-.71s-.43-.61-.58-.97c-.16-.36-.28-.77-.36-1.22-.08-.45-.12-.93-.12-1.45s.04-1,.12-1.45c.08-.45.2-.85.36-1.22Z"/>
          <path class="cls-21" d="M167.8,172.41c-.27-.53-.6-1.01-.99-1.43-.39-.42-.83-.78-1.32-1.07-.49-.29-1.02-.52-1.6-.67-.58-.15-1.19-.23-1.84-.23s-1.27.08-1.84.23c-.58.16-1.11.38-1.6.67-.49.29-.93.65-1.32,1.07-.39.42-.72.9-1,1.43-.27.53-.48,1.12-.63,1.75-.14.63-.22,1.31-.22,2.02s.07,1.39.22,2.02c.15.63.35,1.21.63,1.74.27.53.61,1.01,1,1.43s.83.78,1.32,1.07c.49.29,1.02.52,1.6.67.58.15,1.19.24,1.84.24s1.26-.08,1.84-.24c.58-.15,1.11-.38,1.6-.67.49-.29.93-.65,1.32-1.07s.72-.9.99-1.43.48-1.11.63-1.74c.15-.63.22-1.31.22-2.02s-.07-1.39-.22-2.02c-.15-.63-.35-1.22-.63-1.75ZM165.99,177.63c-.08.45-.2.85-.36,1.22-.16.36-.35.69-.59.97-.23.28-.5.52-.8.71-.3.19-.63.34-1,.44-.37.1-.76.15-1.19.15s-.82-.05-1.19-.15c-.37-.1-.7-.24-1-.44-.3-.19-.56-.43-.8-.71-.23-.28-.43-.61-.58-.97-.16-.36-.28-.77-.36-1.22-.08-.45-.12-.93-.12-1.45s.04-1,.12-1.45c.08-.45.2-.85.36-1.22.16-.37.35-.69.58-.97.23-.28.5-.52.8-.71.3-.19.64-.34,1-.44.37-.1.76-.15,1.19-.15s.82.05,1.19.15c.37.1.7.25,1,.44.3.19.57.43.8.71.23.28.43.6.59.97.16.36.28.77.36,1.22.08.45.13.93.13,1.45s-.04,1-.13,1.45Z"/>
          <polygon class="cls-21" points="178.78 180.69 174.83 169.3 170.68 169.3 170.68 183.07 173.12 183.07 173.12 171.43 177.16 183.07 180.24 183.07 184.33 171.42 184.33 183.07 186.86 183.07 186.86 169.3 182.78 169.3 178.78 180.69"/>
          <path class="cls-21" d="M199.41,170.56c-.45-.4-.99-.71-1.61-.93-.63-.22-1.31-.33-2.06-.33h-6.45v13.77h2.53v-4.73h3.92c.74,0,1.43-.11,2.05-.34.63-.22,1.16-.54,1.62-.94.45-.4.8-.88,1.05-1.44.25-.56.38-1.16.38-1.83s-.13-1.27-.37-1.82c-.25-.55-.6-1.03-1.05-1.43ZM198.11,174.78c-.13.29-.31.54-.54.74-.24.2-.52.35-.86.46-.34.11-.72.16-1.14.16h-3.76v-4.65h3.79c.42,0,.79.05,1.12.16.34.11.62.26.85.46.23.2.41.44.54.73.13.29.19.61.19.97s-.06.68-.19.97Z"/>
          <path class="cls-21" d="M205.86,169.3l-4.94,13.77h2.64l1.1-3.24h5.94l1.09,3.24h2.7l-4.87-13.77h-3.65ZM205.39,177.67l2.26-6.66,2.23,6.66h-4.49Z"/>
          <polygon class="cls-21" points="225.83 180.46 219.94 169.3 215.85 169.3 215.85 183.07 218.3 183.07 218.3 171.3 224.48 183.07 228.27 183.07 228.27 169.3 225.83 169.3 225.83 180.46"/>
          <polygon class="cls-21" points="242.74 169.3 239.95 169.3 236.22 175.57 232.54 169.3 229.69 169.3 234.93 177.96 234.93 183.07 237.46 183.07 237.46 177.95 242.74 169.3"/>
        </g>
      </g>
    </g>
  </g>
</svg>