<?xml version="1.0" encoding="UTF-8"?>
<svg id="Layer_2" data-name="Layer 2" xmlns="http://www.w3.org/2000/svg" viewBox="0 0 217.12 205.83">
  <defs>
    <style>
      .cls-1 {
        fill: #c7041f;
      }
    </style>
  </defs>
  <g id="Layer_1-2" data-name="Layer 1">
    <g>
      <g>
        <g>
          <path class="cls-1" d="M55.33,79.34c10.03-34.76,56.26-48.26,86.17-26.65,9.47,6.69,16.54,16.3,19.44,26.81-5.23-9.62-12.88-17.65-22.1-23.15-29.26-17.8-68.06-6.3-83.51,22.99h0Z"/>
          <path class="cls-1" d="M68.04,81.96c8.27-25.49,42.78-35.18,65.12-19.48,7.18,4.86,12.64,11.88,15.07,19.64-4.33-6.94-10.24-12.65-17.19-16.57-22.01-12.53-50.26-4.57-63,16.41h0Z"/>
          <path class="cls-1" d="M42.25,76.65c11.65-44.27,70.31-61.89,107.83-34.05,11.87,8.54,20.58,20.86,23.94,34.21-6.11-12.4-15.53-22.82-27.08-30.01-36.84-23.19-86.54-8.15-104.69,29.85h0Z"/>
          <path class="cls-1" d="M68.04,81.96c8.27-25.49,42.78-35.18,65.12-19.48,7.18,4.86,12.64,11.88,15.07,19.64-4.33-6.94-10.24-12.65-17.19-16.57-22.01-12.53-50.26-4.57-63,16.41h0Z"/>
          <path class="cls-1" d="M68.04,81.96c8.27-25.49,42.78-35.18,65.12-19.48,7.18,4.86,12.64,11.88,15.07,19.64-4.33-6.94-10.24-12.65-17.19-16.57-22.01-12.53-50.26-4.57-63,16.41h0Z"/>
          <path class="cls-1" d="M28.71,73.86C37.02,39.46,71.41,15.46,108.2,15.61c27.4-.03,54.18,13.34,69.01,35.29,4.83,7.14,8.46,14.98,10.35,23.13-31.15-67.59-127.58-67.66-158.85-.17h0Z"/>
          <path class="cls-1" d="M13.54,70.74C22.81,28.97,63.74-.07,108.2,0c33.06.02,65.07,16.19,82.59,42.92,5.68,8.66,9.87,18.15,11.93,27.98-14.86-34.16-48.58-58.52-87.07-61.21C71.36,6.52,30.69,31.65,13.54,70.74h0Z"/>
          <path class="cls-1" d="M68.04,81.96c8.27-25.49,42.78-35.18,65.12-19.48,7.18,4.86,12.64,11.88,15.07,19.64-4.33-6.94-10.24-12.65-17.19-16.57-22.01-12.53-50.26-4.57-63,16.41h0Z"/>
        </g>
        <g>
          <path class="cls-1" d="M55.33,126.48c15.46,29.3,54.25,40.78,83.51,22.99,9.22-5.5,16.87-13.53,22.1-23.15-2.9,10.51-9.97,20.12-19.45,26.81-29.9,21.62-76.14,8.1-86.17-26.65h0Z"/>
          <path class="cls-1" d="M68.04,123.86c12.74,20.98,40.99,28.93,63,16.41,6.95-3.92,12.86-9.62,17.19-16.57-2.43,7.76-7.9,14.79-15.07,19.64-22.34,15.7-56.86,6-65.12-19.48h0Z"/>
          <path class="cls-1" d="M42.25,129.18c18.16,38.01,67.86,53.04,104.69,29.85,11.54-7.19,20.97-17.61,27.08-30.01-3.36,13.35-12.07,25.66-23.94,34.21-37.52,27.85-96.19,10.2-107.83-34.05h0Z"/>
          <path class="cls-1" d="M68.04,123.86c12.74,20.98,40.99,28.93,63,16.41,6.95-3.92,12.86-9.62,17.19-16.57-2.43,7.76-7.9,14.79-15.07,19.64-22.34,15.7-56.86,6-65.12-19.48h0Z"/>
          <path class="cls-1" d="M68.04,123.86c12.74,20.98,40.99,28.93,63,16.41,6.95-3.92,12.86-9.62,17.19-16.57-2.43,7.76-7.9,14.79-15.07,19.64-22.34,15.7-56.86,6-65.12-19.48h0Z"/>
          <path class="cls-1" d="M28.71,131.97c31.3,67.53,127.73,67.37,158.85-.17-1.88,8.15-5.51,15.99-10.35,23.13-14.83,21.95-41.61,35.31-69.01,35.29-36.79.16-71.19-23.86-79.5-58.25h0Z"/>
          <path class="cls-1" d="M13.54,135.09c17.15,39.09,57.81,64.22,102.11,61.05,38.49-2.69,72.21-27.05,87.07-61.21-2.05,9.83-6.25,19.31-11.93,27.98-17.53,26.73-49.53,42.9-82.59,42.92-44.48.06-85.38-28.96-94.65-70.74h0Z"/>
          <path class="cls-1" d="M68.04,123.86c12.74,20.98,40.99,28.93,63,16.41,6.95-3.92,12.86-9.62,17.19-16.57-2.43,7.76-7.9,14.79-15.07,19.64-22.34,15.7-56.86,6-65.12-19.48h0Z"/>
        </g>
      </g>
      <g>
        <polygon class="cls-1" points="5.87 100.23 12.12 119.14 0 119.14 5.87 100.23"/>
        <polygon class="cls-1" points="38.12 119.14 15.98 119.14 7.74 94.22 13.1 76.98 25.02 76.98 29.44 91.19 38.12 119.14"/>
        <polygon class="cls-1" points="55.87 120.49 40.72 120.49 40.72 105.9 42.79 107.89 55.87 120.49"/>
        <polygon class="cls-1" points="181.42 106.64 181.42 119.83 168.52 119.83 172.86 115.39 181.42 106.64"/>
        <polygon class="cls-1" points="181.42 88.45 181.42 101.65 174.85 94.94 168.52 88.45 181.42 88.45"/>
        <polygon class="cls-1" points="67.51 87.94 67.51 101.19 66.95 100.64 55.54 89.51 53.93 87.94 67.51 87.94"/>
        <path class="cls-1" d="M71.01,113.2c-.03.85-.22,1.64-.57,2.37-.57,1.19-1.56,2.21-2.93,3-1.97,1.13-4.72,1.81-8.19,1.91-.32,0-.65.02-.99.02,0,0,.41-.17.78-.5.65-.54,1.23-1.54-.38-2.89-.26-.22-.64-.56-1.12-.98-4.14-3.71-15.34-14.23-15.34-14.23,0,0-.02,0-.05-.05-.24-.25-1.51-1.67-1.51-5.11,0-2.1.58-4.07,1.87-5.6,1.63-1.93,4.39-3.2,8.59-3.2,0,0-2.29,2.19-.67,3.67.48.44,2.19,1.95,4.35,3.85,5.08,4.48,12.66,11.12,12.66,11.12,0,0,.06.04.16.1.7.49,3.45,2.65,3.34,6.52Z"/>
        <rect class="cls-1" x="72.53" y="87.94" width="13.41" height="31.9"/>
        <rect class="cls-1" x="88.92" y="87.94" width="13.41" height="31.9"/>
        <path class="cls-1" d="M136.31,102.52v17.32h-4.76c-4.79,0-8.66-3.87-8.66-8.65,0-2.39.97-4.56,2.54-6.13,1.56-1.56,3.73-2.54,6.13-2.54h4.76Z"/>
        <path class="cls-1" d="M167.19,88.45v31.39h-3.72c-1.77,0-3.42-.58-4.75-1.57-1.93-1.45-3.19-3.76-3.19-6.36v-15.51c0-3.69,2.51-6.79,5.91-7.68.65-.17,1.33-.26,2.03-.26h3.72Z"/>
        <path class="cls-1" d="M199.33,88.45v31.39h-6.46c-2.84,0-5.33-1.49-6.73-3.74-.76-1.22-1.21-2.66-1.21-4.19v-15.51c0-2.37,1.04-4.5,2.68-5.95,1.4-1.24,3.24-2,5.26-2h6.46Z"/>
        <path class="cls-1" d="M210.56,88.45h6.56v31.39h-6.56c-4.33,0-7.84-3.51-7.84-7.84v-15.71c0-4.33,3.51-7.84,7.84-7.84Z" transform="translate(419.84 208.29) rotate(-180)"/>
        <path class="cls-1" d="M136.31,88.45v11.63h-11.67v-3.69c0-4.39,3.56-7.95,7.95-7.95h3.72Z"/>
        <path class="cls-1" d="M119.5,96.28v23.56h-13.41v-31.9h5.07c4.61,0,8.34,3.73,8.34,8.34Z"/>
        <path class="cls-1" d="M152.51,96.39v23.44h-11.66v-27.49c-.13-.99-.67-2.25-2.57-2.25v-1.65h6.29c1.77,0,3.41.58,4.73,1.56,1.95,1.45,3.21,3.77,3.21,6.39Z"/>
      </g>
    </g>
  </g>
</svg>