<?xml version="1.0" encoding="UTF-8"?>
<svg id="Layer_2" data-name="Layer 2" xmlns="http://www.w3.org/2000/svg" viewBox="0 0 202.71 134.31">
  <defs>
    <style>
      .cls-1 {
        fill: #fff;
        fill-rule: evenodd;
      }

      .cls-2 {
        fill: #ffd400;
      }
    </style>
  </defs>
  <g id="Layer_1-2" data-name="Layer 1">
    <g>
      <path id="Rectangle_1" data-name="Rectangle 1" d="M0,23.72h202.71v86.87H0V23.72Z"/>
      <path id="Rectangle_2" data-name="Rectangle 2" class="cls-2" d="M0,0h202.71v23.72H0V0Z"/>
      <path id="Rectangle_3" data-name="Rectangle 3" class="cls-2" d="M0,110.59h202.71v23.72H0v-23.72Z"/>
      <path id="Path_1" data-name="Path 1" class="cls-1" d="M28.6,78.08c-1.01.29-2.06.41-3.12.36h-5.69v-7.64h5.49c1.09-.04,2.19.08,3.24.36,1.07.36,1.87,1.29,2.06,2.4v2.04c-.12,1.15-.91,2.11-2,2.47M19.8,62.8v-7.21h5.92c.97-.04,1.92.27,2.67.88.69.68,1.05,1.63.98,2.6.11,1.19-.43,2.34-1.41,3.01-.96.54-2.05.78-3.15.71h-5.01ZM42.35,72.93c-.45-3.25-2.63-6.01-5.69-7.2,3.05-1.78,4.83-5.13,4.6-8.65.25-3.68-1.54-7.2-4.65-9.16-2.97-1.65-6.35-2.43-9.74-2.26H7.46v42.96h20.57c3.16.05,6.27-.75,9.01-2.32,2.81-1.63,4.76-4.43,5.31-7.63.07-.24.12-.61.18-.98.09-.71.13-1.42.13-2.13,0-.53-.03-1.07-.13-1.59l-.18-1.03Z"/>
      <path id="Path_2" data-name="Path 2" class="cls-1" d="M193.82,72c-1.08-1.71-2.8-2.9-4.78-3.33,1.4-.73,2.67-1.7,3.73-2.87,1.12-1.26,1.87-2.81,2.16-4.47.12-.54.21-1.09.26-1.64.18-1.71.09-3.44-.26-5.13-.68-3.45-3.09-6.31-6.37-7.57-3.14-1.03-6.43-1.48-9.73-1.34h-18.69v42.97h12.43v-14.66h5.23c1.5-.16,3,.33,4.1,1.36.91,1.31,1.34,2.89,1.21,4.48v4.31c0,.65.02,3.51.02,4.55h12.12l.03-10.49c.09-2.15-.42-4.28-1.46-6.16h0ZM181.75,63.36c-1.1.53-2.31.78-3.53.71h-5.66v-7.87h7.65c1.89.12,3.33,1.74,3.21,3.63,0,.09-.02.19-.03.28.14,1.31-.5,2.59-1.65,3.25h0Z"/>
      <path id="Path_3" data-name="Path 3" class="cls-1" d="M137.32,71.53h17.06v-10h-17.06v-5.58h18.66v-10.3h-31.32v42.96h31.83v-10.54h-19.16v-6.55Z"/>
      <path id="Path_4" data-name="Path 4" class="cls-1" d="M66.97,73.83h-7.69l3.88-14.4,3.82,14.4ZM69.58,45.65h-12.87l-13.76,42.96h12.5l1.45-5.64h12.34l1.46,5.64h12.67l-13.79-42.9v-.06Z"/>
      <path id="Path_5" data-name="Path 5" class="cls-1" d="M107.89,73.2c.01.47-.01.93-.07,1.39,0,1.39-.81,2.66-2.07,3.25-1.14.61-2.42.92-3.71.9-1.65.18-3.29-.39-4.48-1.55-1.03-1.49-1.51-3.29-1.37-5.09v-26.44h-12.73v27.54c-.33,4.95,1.79,9.76,5.67,12.86,7.89,5.03,17.98,5.03,25.87,0,3.84-3.12,5.93-7.91,5.61-12.86v-27.55h-12.72v27.54Z"/>
    </g>
  </g>
</svg>