<?xml version="1.0" encoding="UTF-8"?>
<svg id="Layer_2" data-name="Layer 2" xmlns="http://www.w3.org/2000/svg" viewBox="0 0 391.17 127.56">
  <defs>
    <style>
      .cls-1 {
        fill: #eb6209;
      }
    </style>
  </defs>
  <g id="Layer_1-2" data-name="Layer 1">
    <g>
      <path class="cls-1" d="M41,83.02c-1.49,1.6-3.13,3.12-4.28,5.04h2.75l3.47,4.13,3.47-4.13h3.59v-17.87c-.61,1.85-1.6,3.53-2.61,5.09-1.92,2.86-4.12,5.34-6.39,7.74Z"/>
      <path class="cls-1" d="M50,28.86v-4.36h-14.11v4.37C15.53,32.87,0,53.89,0,79.22c0,22.44,12.18,41.49,29.11,48.34v-54.42c-6.14-.48-11.48-1.27-15.52-2.28,1.69-2.82,10.64-5.09,22.3-5.76v2.87c1.07-3.26,3.79-5.93,5.79-8.27,2.91-3.3,6.06-6.17,8.7-9.79-.51,2.4-1.74,4.5-2.99,6.43-1.91,2.86-4.11,5.34-6.39,7.75-1.9,2.04-4.05,3.96-5.11,6.74v6.52c1.07-3.26,3.79-5.93,5.79-8.27,2.77-3.15,5.77-5.91,8.33-9.3v-.71c17.28.65,30.34,3.64,30.34,7.23,0,1.09-1.2,2.12-3.34,3.04.09-.24.14-.48.14-.73,0-3.85-11.64-7.06-27.14-7.82v-.16c-.61,1.85-1.6,3.53-2.61,5.09-1.91,2.86-4.11,5.34-6.39,7.75-1.9,2.04-4.05,3.96-5.11,6.74v6.69c1.07-3.26,3.79-5.93,5.79-8.27,2.77-3.15,5.77-5.91,8.33-9.3v-4.23c11.65.67,20.6,2.94,22.3,5.76-4.04,1-9.37,1.8-15.52,2.28v54.42c16.93-6.85,29.11-25.9,29.11-48.34-.02-25.33-15.55-46.35-35.91-50.36ZM47.39,47.34c-1.91,2.86-4.11,5.34-6.39,7.75-1.9,2.04-4.05,3.96-5.11,6.74v-1.03c-15.5.76-27.14,3.97-27.14,7.82,0,.24.05.49.14.73-2.14-.93-3.34-1.96-3.34-3.04,0-3.59,13.05-6.57,30.31-7.23,1.04-3.31,3.8-6.01,5.82-8.37,2.91-3.3,6.06-6.17,8.7-9.79-.51,2.39-1.74,4.5-2.99,6.42ZM47.39,37.96c-1.91,2.86-4.11,5.34-6.39,7.75-2.16,2.32-4.63,4.47-5.48,7.91-.76-5.19,3.39-9.06,6.15-12.29,2.91-3.3,6.06-6.17,8.7-9.79-.5,2.39-1.73,4.49-2.98,6.42Z"/>
      <rect class="cls-1" x="35.86" width="14.17" height="22.27"/>
      <path class="cls-1" d="M108.24,69.59h5.11c10.81,0,18.62-4.67,18.62-15.99v-3.21c0-11.76-7.6-15.63-19.06-15.63h-17.45v50.54h12.78v-15.71ZM108.24,44.83h4.16c4.24,0,6.72,1.61,6.72,6.06v2.48c0,4.46-2.56,6.13-6.72,6.13h-4.16s0-14.67,0-14.67Z"/>
      <path class="cls-1" d="M168.56,65.72c4.16-2.41,6.79-6.65,6.79-13.07v-2.56c0-11.47-7.08-15.34-17.75-15.34h-18.62v50.54h12.78v-16.94h5.4c2.19,5.55,4.53,11.76,6.43,16.94h13.58c-2.77-6.64-5.62-13.14-8.61-19.57ZM162.5,52.5c0,4.09-2.41,5.7-5.91,5.7h-4.82v-13.37h4.82c3.72,0,5.91,1.68,5.91,5.77v1.9Z"/>
      <path class="cls-1" d="M222.3,55.13c0-7.16-1.53-12.05-4.67-15.41-3.36-3.65-8.76-5.55-15.41-5.55s-12.05,1.9-15.41,5.55c-3.14,3.36-4.67,8.25-4.67,15.41v9.79c0,7.16,1.53,12.05,4.67,15.41,3.36,3.65,8.76,5.55,15.41,5.55s12.05-1.9,15.41-5.55c3.14-3.36,4.67-8.25,4.67-15.41v-9.79ZM209.45,66.45c0,2.92-.51,4.82-1.68,6.13-1.24,1.39-3.14,2.19-5.55,2.19s-4.31-.8-5.55-2.19c-1.17-1.31-1.68-3.21-1.68-6.13v-12.85c0-2.92.51-4.82,1.68-6.13,1.24-1.39,3.14-2.19,5.55-2.19s4.31.8,5.55,2.19c1.17,1.31,1.68,3.21,1.68,6.13v12.85Z"/>
      <path class="cls-1" d="M252.83,68.93v-34.18h-12.78v33.96c0,4.6-1.83,5.92-5.99,5.92h-6.94v10.66h10.22c10.01,0,15.49-4.45,15.49-16.36Z"/>
      <path class="cls-1" d="M288.54,34.75h-19.14c-3.87,16.65-7.6,33.67-10.88,50.54h13c.51-3.21,1.02-6.43,1.53-9.42h11.83c.51,2.99,1.02,6.21,1.53,9.42h13.15c-3.43-16.94-7.08-34.03-11.02-50.54ZM274.73,65.65l.44-2.78c1.02-5.99,2.19-12.12,3.14-17.09h.95c1.1,5.11,2.34,11.1,3.43,17.02.15.88.29,1.83.51,2.85h-8.47Z"/>
      <polygon class="cls-1" points="331.03 54.55 318.98 54.55 318.98 34.75 306.2 34.75 306.2 85.29 318.98 85.29 318.98 65.72 331.03 65.72 331.03 85.29 343.81 85.29 343.81 34.75 331.03 34.75 331.03 54.55"/>
      <path class="cls-1" d="M391.06,85.29v-50.54h-11.9v15.99c0,2.92.07,7.52.15,10.81h-.22c-1.39-2.99-4.82-9.35-7.23-13.36l-8.03-13.44h-10.95v50.54h11.9v-16.36c0-2.92-.07-7.45-.15-10.74h.22c1.39,2.92,4.6,8.84,7.23,13.29l8.18,13.8h10.8Z"/>
      <path class="cls-1" d="M116.28,109.73c-.66,2.66-1.48,6.69-1.9,8.79h-.14c-.48-2.41-1.35-6.31-1.93-8.76-.86-3.69-1.86-8.14-2.83-12.14h-2.86c-.93,4.03-1.83,8.14-2.76,12.14-.59,2.52-1.31,6.03-1.86,8.76h-.14c-.59-2.9-1.31-6.31-1.9-8.76-1.03-4.31-1.97-8.38-2.76-12.14h-2.76c1.9,8,3.9,16.14,5.86,23.55h3.34c.83-3.28,1.69-6.9,2.52-10.38.79-3.31,1.45-6.79,1.86-9.9h.14c.41,3.1,1.1,6.65,1.9,9.86.86,3.55,1.69,7.03,2.52,10.41h3.34c2-7.41,3.93-15.34,5.79-23.55h-2.72c-.91,4.46-1.81,8.39-2.71,12.12Z"/>
      <polygon class="cls-1" points="126.7 121.17 139.53 121.17 139.53 118.86 129.39 118.86 129.39 110.28 138.73 110.28 138.73 107.97 129.39 107.97 129.39 99.93 139.53 99.93 139.53 97.62 126.7 97.62 126.7 121.17"/>
      <path class="cls-1" d="M159.35,104.93v-.69c0-4.62-2.62-6.62-7.93-6.62h-6.65v23.55h2.69v-9.48h3.9c.31,0,.65,0,.93-.03,1.52,3.1,3.14,6.59,4.48,9.52h2.79c-1.48-3.17-3.14-6.65-4.79-9.86,3.03-.8,4.58-2.83,4.58-6.39ZM151.22,109.42h-3.76v-9.52h3.76c3.52,0,5.48,1.03,5.48,4.48v.48c0,3.56-2,4.56-5.48,4.56Z"/>
      <path class="cls-1" d="M180.7,97.62h-2.93l-10.21,13.48v-13.48h-2.69v23.55h2.69v-6.45l3.62-4.76c2.31,3.62,4.83,7.76,6.93,11.21h2.9c-2.48-4.17-5.41-8.79-8.21-13.17l7.9-10.38Z"/>
      <polygon class="cls-1" points="183.7 99.93 194.97 99.93 183.39 119.24 183.39 121.17 197.73 121.17 197.73 118.86 186.49 118.86 198.08 99.56 198.08 97.62 183.7 97.62 183.7 99.93"/>
      <polygon class="cls-1" points="202.7 121.17 215.53 121.17 215.53 118.86 205.39 118.86 205.39 110.28 214.73 110.28 214.73 107.97 205.39 107.97 205.39 99.93 215.53 99.93 215.53 97.62 202.7 97.62 202.7 121.17"/>
      <path class="cls-1" d="M233.15,113.07c0,2-.48,3.52-1.35,4.52-.86,1-2.14,1.52-3.76,1.52s-2.9-.52-3.76-1.52c-.86-1-1.34-2.52-1.34-4.52v-15.45h-2.69v15.41c0,2.62.62,4.69,1.86,6.1,1.31,1.52,3.28,2.31,5.93,2.31s4.62-.79,5.93-2.31c1.24-1.41,1.86-3.48,1.86-6.1v-15.41h-2.69v15.45h.01Z"/>
      <path class="cls-1" d="M249.46,110.69h6.1v1.17c0,2.76-.48,4.31-1.52,5.48-1,1.1-2.38,1.72-4.38,1.72s-3.45-.62-4.45-1.72c-1.04-1.17-1.52-2.72-1.52-5.48v-4.9c0-2.07.28-4.24,1.55-5.62.9-1,2.38-1.62,4.27-1.62,1.28,0,2.52.28,3.59,1.03.86.62,1.76,1.69,2.34,3.07l2.34-.86c-.72-1.97-1.86-3.28-3.03-4.1-1.31-.93-3-1.52-5.21-1.52-2.83,0-5,.93-6.34,2.38-1.45,1.55-2.21,3.86-2.21,7.03v5.03c0,3.34.72,5.62,2.14,7.17,1.45,1.59,3.65,2.48,6.52,2.48s5-.9,6.45-2.48c1.48-1.62,2.07-3.86,2.07-7.17v-3.38h-8.72v2.29h0Z"/>
      <polygon class="cls-1" points="263.7 121.17 276.52 121.17 276.52 118.86 266.39 118.86 266.39 110.28 275.73 110.28 275.73 107.97 266.39 107.97 266.39 99.93 276.52 99.93 276.52 97.62 263.7 97.62 263.7 121.17"/>
      <path class="cls-1" d="M308.73,109.73c-.66,2.66-1.48,6.69-1.9,8.79h-.14c-.48-2.41-1.35-6.31-1.93-8.76-.86-3.69-1.86-8.14-2.83-12.14h-2.86c-.93,4.03-1.83,8.14-2.76,12.14-.59,2.52-1.31,6.03-1.86,8.76h-.14c-.59-2.9-1.31-6.31-1.9-8.76-1.03-4.31-1.97-8.38-2.76-12.14h-2.76c1.9,8,3.9,16.14,5.86,23.55h3.34c.83-3.28,1.69-6.9,2.52-10.38.79-3.31,1.45-6.79,1.86-9.9h.14c.41,3.1,1.1,6.65,1.9,9.86.86,3.55,1.69,7.03,2.52,10.41h3.34c2-7.41,3.93-15.34,5.79-23.55h-2.72c-.92,4.46-1.81,8.39-2.71,12.12Z"/>
      <rect class="cls-1" x="319.25" y="97.62" width="2.69" height="23.55"/>
      <polygon class="cls-1" points="328.53 121.17 341.35 121.17 341.35 118.86 331.22 118.86 331.22 110.28 340.56 110.28 340.56 107.97 331.22 107.97 331.22 99.93 341.35 99.93 341.35 97.62 328.53 97.62 328.53 121.17"/>
      <path class="cls-1" d="M361.42,97.62h-6.9v23.55h6.9c3.03,0,5.24-.66,6.72-2.07,1.45-1.38,2.28-3.34,2.28-6.69v-6.07c0-3.07-.69-5.28-2.21-6.72-1.31-1.24-3.55-2-6.79-2ZM367.73,112.42c0,2.48-.52,4-1.59,5.03-1,.97-2.55,1.41-4.83,1.41h-4.1v-18.93h4.1c2.24,0,3.79.38,4.86,1.34,1.17,1.07,1.55,3,1.55,5.07v6.08h.01Z"/>
      <path class="cls-1" d="M388.49,97.62v15.45c0,2-.48,3.52-1.35,4.52-.86,1-2.14,1.52-3.76,1.52s-2.9-.52-3.76-1.52c-.86-1-1.34-2.52-1.34-4.52v-15.45h-2.69v15.41c0,2.62.62,4.69,1.86,6.1,1.31,1.52,3.28,2.31,5.93,2.31s4.62-.79,5.93-2.31c1.24-1.41,1.86-3.48,1.86-6.1v-15.41h-2.68Z"/>
    </g>
  </g>
</svg>