<?xml version="1.0" encoding="UTF-8"?>
<svg id="Layer_2" data-name="Layer 2" xmlns="http://www.w3.org/2000/svg" viewBox="0 0 138.92 255.38">
  <defs>
    <style>
      .cls-1 {
        fill: #f9ea00;
      }

      .cls-1, .cls-2, .cls-3, .cls-4, .cls-5, .cls-6, .cls-7, .cls-8 {
        fill-rule: evenodd;
      }

      .cls-2 {
        fill: #fff;
      }

      .cls-3 {
        fill: #c6051f;
      }

      .cls-4 {
        fill: #1e8835;
      }

      .cls-5 {
        fill: #d13e21;
      }

      .cls-6 {
        fill: #441d68;
      }

      .cls-7 {
        fill: #318dc2;
      }

      .cls-8 {
        fill: #1f2567;
      }
    </style>
  </defs>
  <g id="Layer_1-2" data-name="Layer 1">
    <g>
      <g>
        <path class="cls-3" d="M13.62,229.47c0,2.22,1.62,4.01,3.62,4.01s3.62-1.79,3.62-4.01V0h-7.25v229.47Z"/>
        <path class="cls-5" d="M33.42,0v200.64c0,.74.54,1.34,1.21,1.34s1.21-.6,1.21-1.34V0h-2.42,0Z"/>
        <path class="cls-1" d="M45.97,0v248.7c0,3.69,2.7,6.68,6.04,6.68s6.04-2.99,6.04-6.68V0h-12.08Z"/>
        <path class="cls-4" d="M60.93,0v191.02c0,5.17,3.79,9.35,8.46,9.35s8.46-4.19,8.46-9.35V0h-16.91Z"/>
        <path class="cls-7" d="M84.36,0v239.09c0,1.48,1.08,2.67,2.42,2.67s2.42-1.2,2.42-2.67V0h-4.83Z"/>
        <path class="cls-8" d="M98.12,0v210.25c0,3.69,2.7,6.68,6.04,6.68s6.04-2.99,6.04-6.68V0h-12.08Z"/>
        <path class="cls-6" d="M116.71,0v219.86c0,2.95,2.16,5.34,4.83,5.34s4.83-2.39,4.83-5.34V0h-9.66Z"/>
      </g>
      <path class="cls-3" d="M0,174.75h138.92V21.09H0v153.65Z"/>
      <path class="cls-2" d="M27.8,76.79c0,1.28.04,2.52.13,3.73.09,1.21.29,2.29.6,3.25.31.96.76,1.74,1.36,2.34.59.6,1.4.93,2.41.99,2.33,0,3.49-1.38,3.49-4.13,0-3.75-2.3-7.51-6.89-11.26l-3.65-2.88c-1.03-.8-2.1-1.65-3.2-2.56-1.1-.91-2.1-1.96-3.01-3.15-.91-1.19-1.66-2.56-2.25-4.12-.59-1.56-.89-3.38-.89-5.48s.4-4.14,1.2-5.9c.8-1.76,1.91-3.25,3.35-4.48,1.43-1.23,3.16-2.17,5.17-2.83,2.01-.66,4.25-.99,6.71-.99,2.05,0,3.97.37,5.77,1.11,1.8.74,3.37,1.74,4.72,3,1.35,1.26,2.41,2.73,3.18,4.42.78,1.69,1.16,3.48,1.16,5.38l-.03,1.29-12.16,1.56c0-.12,0-.27.02-.45l.03-.58c.01-.21.02-.41.03-.61.01-.2.02-.38.02-.54,0-.66-.05-1.35-.16-2.08-.11-.73-.3-1.4-.57-2.01-.27-.61-.65-1.11-1.13-1.51-.48-.4-1.1-.6-1.86-.6-.65,0-1.21.13-1.7.39s-.89.61-1.21,1.05c-.32.44-.57.94-.73,1.51-.16.57-.24,1.16-.24,1.78,0,.9.11,1.72.32,2.47.21.75.54,1.46.97,2.14.43.68.95,1.33,1.57,1.95s1.32,1.24,2.12,1.86l4.3,3.41c1.55,1.26,2.97,2.55,4.25,3.86,1.28,1.32,2.39,2.72,3.31,4.19.93,1.48,1.64,3.06,2.15,4.75.51,1.69.76,3.53.76,5.53,0,1.88-.39,3.6-1.18,5.18-.79,1.58-1.86,2.94-3.2,4.07-1.35,1.14-2.93,2.03-4.75,2.67-1.82.64-3.77.96-5.84.96-2.74,0-5.11-.45-7.11-1.35-2-.9-3.68-2.11-5.03-3.64-1.35-1.53-2.37-3.29-3.06-5.27-.69-1.99-1.09-4.08-1.2-6.28l11.93-2.13h0ZM51.43,58.49c0-12.74,5.67-19.11,17.01-19.11s17.04,6.37,17.04,19.11v17.85c0,2.6-.29,5.05-.86,7.35-.57,2.31-1.52,4.33-2.85,6.07-1.33,1.74-3.08,3.11-5.25,4.12s-4.87,1.51-8.08,1.51-5.9-.49-8.07-1.47c-2.17-.98-3.91-2.32-5.24-4.01-1.33-1.7-2.28-3.68-2.85-5.96-.57-2.28-.86-4.72-.86-7.34v-18.12ZM73.71,55.77c0-5.31-1.76-7.97-5.27-7.97-1.08,0-1.96.25-2.64.73-.68.49-1.21,1.11-1.6,1.87-.39.76-.65,1.61-.79,2.56-.14.95-.21,1.88-.21,2.8v23.3c0,5.29,1.75,7.94,5.24,7.94s5.27-2.65,5.27-7.94v-23.3h0ZM91.66,40.43h12c2.63,0,5.03.19,7.19.57,2.17.38,4.03,1.08,5.58,2.11,1.55,1.03,2.77,2.45,3.65,4.25.88,1.81,1.36,4.14,1.42,6.99,0,1.42-.18,2.68-.53,3.77-.36,1.1-.9,2.07-1.63,2.91-.73.84-1.65,1.57-2.75,2.19-1.1.62-2.4,1.16-3.91,1.62,6.92,1.56,10.38,6.09,10.38,13.6,0,5.41-1.4,9.41-4.2,12.01-2.8,2.6-7.08,3.89-12.84,3.89h-14.36v-53.91ZM105.37,61.64c1.1,0,1.99-.19,2.68-.58.69-.39,1.24-.92,1.65-1.59.41-.67.69-1.46.84-2.38.15-.92.23-1.92.23-3,0-1.6-.16-2.83-.49-3.7-.32-.87-.78-1.5-1.37-1.89-.59-.39-1.3-.61-2.12-.67-.82-.06-1.72-.09-2.72-.09h-.65v13.9s1.94,0,1.94,0ZM104.52,86.65c1.62,0,2.89-.19,3.83-.55s1.65-.93,2.13-1.68c.49-.75.8-1.68.94-2.8.14-1.12.21-2.43.21-3.92,0-1.4-.13-2.65-.37-3.76-.25-1.11-.65-2.04-1.21-2.8-.56-.76-1.29-1.34-2.18-1.74-.9-.4-1.99-.6-3.28-.6h-1.16v17.85h1.1ZM27.8,137.86c0,1.28.04,2.52.13,3.73.09,1.21.29,2.29.6,3.25.31.96.76,1.74,1.36,2.34.59.6,1.4.93,2.41.99,2.33,0,3.49-1.38,3.49-4.13,0-3.75-2.3-7.51-6.89-11.26l-3.65-2.88c-1.03-.8-2.1-1.65-3.2-2.56s-2.1-1.96-3.01-3.15c-.91-1.19-1.66-2.56-2.25-4.12-.59-1.56-.89-3.38-.89-5.48s.4-4.14,1.2-5.9c.8-1.76,1.91-3.25,3.35-4.48,1.43-1.23,3.16-2.17,5.17-2.83,2.01-.66,4.25-.99,6.71-.99,2.05,0,3.97.37,5.77,1.11,1.8.74,3.37,1.74,4.72,3,1.35,1.26,2.41,2.73,3.18,4.42.78,1.69,1.16,3.48,1.16,5.38l-.03,1.29-12.16,1.56c0-.12,0-.27.02-.45l.03-.58c.01-.21.02-.41.03-.61.01-.2.02-.38.02-.54,0-.66-.05-1.35-.16-2.08-.11-.73-.3-1.4-.57-2.01-.27-.61-.65-1.11-1.13-1.51-.48-.4-1.1-.6-1.86-.6-.65,0-1.21.13-1.7.39-.49.26-.89.61-1.21,1.05-.32.44-.57.94-.73,1.51-.16.57-.24,1.16-.24,1.78,0,.9.11,1.72.32,2.47.21.75.54,1.46.97,2.14.43.68.95,1.33,1.57,1.95.61.62,1.32,1.24,2.12,1.86l4.3,3.41c1.55,1.26,2.97,2.55,4.25,3.86,1.28,1.32,2.39,2.72,3.31,4.19.93,1.48,1.64,3.06,2.15,4.75.51,1.69.76,3.53.76,5.53,0,1.88-.39,3.6-1.18,5.18-.79,1.58-1.86,2.94-3.2,4.07-1.35,1.14-2.93,2.03-4.75,2.66-1.82.64-3.77.96-5.84.96-2.74,0-5.11-.45-7.11-1.35-2-.9-3.68-2.11-5.03-3.64-1.35-1.53-2.37-3.28-3.06-5.27-.69-1.99-1.09-4.08-1.2-6.28l11.93-2.13ZM63.27,101.5h10.41l12.55,53.91h-11.61l-2.39-11.53h-7.6l-2.26,11.53h-11.67l12.58-53.91h0ZM71.45,137.17l-2.94-20.01-3.07,20.01h6.01ZM91.85,101.5h8.47l12.77,28.19v-28.19h9.76v53.91h-8.15l-12.74-29.92v29.92h-10.12v-53.91Z"/>
    </g>
  </g>
</svg>