<?xml version="1.0" encoding="UTF-8"?>
<svg id="Layer_2" data-name="Layer 2" xmlns="http://www.w3.org/2000/svg" viewBox="0 0 475.46 89.34">
  <defs>
    <style>
      .cls-1 {
        fill-rule: evenodd;
      }

      .cls-1, .cls-2 {
        fill: #e33e19;
      }
    </style>
  </defs>
  <g id="Layer_1-2" data-name="Layer 1">
    <g>
      <g>
        <path d="M136.32,77.2h7.21c2.77,0,4.49,1.39,4.49,3.72s-1.72,3.71-4.46,3.71h-4.66v4.47h-2.58v-11.9ZM138.9,79.13v3.59h4.44c1.34,0,2.11-.61,2.11-1.79s-.76-1.8-2.11-1.8h-4.44Z"/>
        <path d="M156.54,77.2h2.97l5.54,11.9h-2.89l-1.17-2.69h-6.1l-1.17,2.69h-2.7l5.53-11.9ZM155.7,84.57h4.47l-.14-.32-2.09-4.88-2.11,4.88-.14.32Z"/>
        <rect x="170.62" y="77.2" width="2.57" height="11.9"/>
        <polygon points="179.41 77.2 182.39 77.2 185.62 81.55 188.81 85.9 188.78 77.2 191.07 77.2 191.07 89.1 188.1 89.1 184.87 84.76 181.67 80.44 181.7 84.76 181.72 89.1 179.41 89.1 179.41 77.2"/>
        <polygon points="201.99 79.15 196.98 79.15 196.98 77.2 209.61 77.2 209.61 79.15 204.58 79.15 204.58 89.1 201.99 89.1 201.99 79.15"/>
        <path d="M224.08,77.2h7.43c2.57,0,4.12,1.22,4.12,3.16,0,1.17-.61,2.11-1.73,2.64,1.31.46,2.06,1.43,2.06,2.82,0,2.01-1.55,3.28-4.18,3.28h-7.69v-11.9ZM226.65,79.13v2.98h4.69c1.09,0,1.73-.51,1.73-1.5s-.65-1.48-1.73-1.48h-4.69ZM226.65,84.01v3.18h4.91c1.16,0,1.84-.56,1.84-1.58s-.68-1.6-1.84-1.6h-4.91Z"/>
        <path d="M241.87,77.2h7.5c2.62,0,4.23,1.22,4.23,3.31,0,1.36-.7,2.4-1.94,2.89,1.09.32,1.51,1.09,1.56,2.31.05,1.46.15,2.57.53,3.38h-2.67c-.31-.65-.36-1.51-.41-3.28-.02-1.07-.51-1.46-1.62-1.46h-4.61v4.74h-2.58v-11.9ZM244.45,79.13v3.32h4.69c1.17,0,1.9-.6,1.9-1.67s-.73-1.65-1.9-1.65h-4.69Z"/>
        <path d="M259.57,84.11v-6.92h2.59v6.97c0,2.02,1.43,3.15,3.42,3.15s3.45-1.12,3.45-3.13v-6.99h2.52v6.94c0,3.3-2.41,5.2-6,5.2s-5.97-1.92-5.97-5.22"/>
        <path d="M277.46,84.95h2.62c.34,1.68,1.56,2.5,3.72,2.5s3.18-.65,3.18-1.55c0-1.19-1.68-1.48-3.64-1.79-2.64-.41-5.75-.85-5.75-3.57,0-2.14,2.07-3.59,5.46-3.59,3.6,0,5.97,1.56,6.39,4.3h-2.48c-.34-1.55-1.73-2.41-3.84-2.41s-2.92.65-2.92,1.48c0,1.23,1.92,1.48,4.03,1.82,2.53.41,5.34.95,5.34,3.54,0,2.18-2.09,3.66-5.66,3.66s-5.99-1.57-6.44-4.39"/>
        <polygon points="295.59 77.2 298.18 77.2 298.18 82.02 304.91 82.02 304.91 77.2 307.48 77.2 307.48 89.1 304.91 89.1 304.91 83.96 298.18 83.96 298.18 89.1 295.59 89.1 295.59 77.2"/>
        <polygon points="313.72 77.2 324.26 77.2 324.26 79.15 316.3 79.15 316.3 82.06 322.22 82.06 322.22 83.96 316.3 83.96 316.3 87.18 324.26 87.18 324.26 89.1 313.72 89.1 313.72 77.2"/>
        <path d="M329.67,84.95h2.62c.34,1.68,1.56,2.5,3.72,2.5s3.18-.65,3.18-1.55c0-1.19-1.68-1.48-3.64-1.79-2.64-.41-5.75-.85-5.75-3.57,0-2.14,2.07-3.59,5.46-3.59,3.6,0,5.97,1.56,6.39,4.3h-2.48c-.34-1.55-1.73-2.41-3.84-2.41s-2.92.65-2.92,1.48c0,1.23,1.92,1.48,4.03,1.82,2.53.41,5.34.95,5.34,3.54,0,2.18-2.09,3.66-5.66,3.66s-5.99-1.57-6.44-4.39"/>
        <rect x="353.45" y="82" width="122.01" height="2.1"/>
        <rect x="2.85" y="82" width="122.01" height="2.1"/>
      </g>
      <g>
        <polygon class="cls-1" points="250.13 43.68 259.29 64.43 237.79 50.53 219.06 60.92 228.12 44.27 212.43 34.12 233.62 34.18 240.42 21.67 245.96 34.21 267.1 34.26 250.13 43.68"/>
        <path class="cls-1" d="M451.2,15.28c-2.12,0-3.92-.75-5.41-2.24-1.49-1.51-2.24-3.31-2.24-5.41,0-2.1.74-3.9,2.23-5.39C447.27.74,449.07,0,451.19,0c2.1,0,3.9.75,5.39,2.24,1.49,1.49,2.24,3.29,2.24,5.4,0,2.1-.74,3.91-2.23,5.41-1.49,1.49-3.29,2.24-5.39,2.24M451.2,13.85c1.72,0,3.18-.6,4.37-1.8,1.21-1.21,1.82-2.68,1.81-4.41,0-1.72-.61-3.18-1.82-4.38-1.2-1.21-2.66-1.82-4.37-1.82-1.73,0-3.2.61-4.41,1.82-1.2,1.2-1.8,2.66-1.79,4.37,0,1.73.6,3.2,1.8,4.42,1.21,1.2,2.68,1.8,4.42,1.8M452.99,8.31l2,3.48h-1.88s-1.84-3.48-1.84-3.48h-1.62v3.48s-1.62,0-1.62,0V3.56s3.99,0,3.99,0c1.08,0,1.82.13,2.24.38.64.4.96,1.11.96,2.14,0,1.39-.74,2.13-2.23,2.24M449.66,7.07h2.42c1.04,0,1.56-.41,1.56-1.24,0-.48-.23-.8-.68-.96-.27-.09-.7-.14-1.3-.14h-2s0,2.34,0,2.34Z"/>
        <path class="cls-1" d="M323.57,29.63h42.13v32.75c-11.68,2.15-23.59,3.46-35.51,3.46-18.06,0-31.54-2.46-41.14-7.4-9.5-4.96-15.28-12.63-15.28-21.64.17-20.5,27.04-30.43,58.74-30.43,10.76,0,20.77.89,31.16,3.28l-7.06,14.82c-8.79-2.2-14.86-2.78-24.24-2.78-18.76,0-29.67,5.71-29.67,14.49,0,8.29,9.88,14.57,28.08,14.57,3.25,0,6-.14,7.9-.32v-6.04h-15.1v-14.77ZM373.4,29.19h27.76s0,36.11,0,36.11h-27.76V29.19ZM401.16,22.12h-27.76V6.93h27.76v15.19ZM475.46,65.29h-66.66V6.93h27.75v41.53h38.91v16.83Z"/>
        <path class="cls-2" d="M75.94,40.23l.02-.04s.02.03-.02.04"/>
        <path class="cls-1" d="M205.76,49.15l-15.57,2.65.74-8.96-5.54,2.78-2.28,19.03-16.31-1.12.78-6.02s-8.61,4.04-13.44,6.37l-8.02-7.28s-11.3,7.82-16.54,11.24c0,0-8.57-9.74-11.06-12.48-5.69,2.92-14.76,7.58-18.3,9.42l-14.61-15.5,2.34-18.07h-13.35v-5.24h13.67s0-.02,0-.03c-.02-2.14-.27-4.02-.7-5.66l22.39-9.06-1.91,14.74h13.75v5.24h-14.6l-2.62,19.04,4.36,4.72,6.9-3.43-2.3-2.69c2.83-2.74,14.1-13.57,19.65-18.91,1.17,1.14,3.09,3.05,4.93,4.86,1.83,1.82,3.59,3.55,4.43,4.34l-11.37,11.27c1.48,1.61,4.67,5.21,6.05,6.83l7.84-5.15-.36-1.88c-.32-1.7-.81-4.25-1.25-6.4l-.11-.54-.8-4.14-1.55-7.97,15.05-.95s2.36,10.85,5.27,23.79l6.87-3.34,1.97-19.9,16.6,1.04s-.68,5.75-.59,5.7c2.04-.98,6.32-3.18,9.9-4.84l9.68,5.95v10.55Z"/>
        <path class="cls-1" d="M44.06,20.12l-2.17-1.07,1.59-.75.15-.07h0s.02-.02.04-.03c.04,0,.08-.03.13-.05t0,0c.32-.15.84-.4,1.53-.73.29-.14.61-.29.97-.45,2.61-1.22,6.72-3.01,11.28-4.29.03,0,.05,0,.07-.02,2.31-.65,4.74-1.16,7.14-1.4,6.69-.68,10.93.06,13.66,1.34,2.63,1.24,3.86,2.99,4.55,4.48l2.08-1.92,9.56-8.81c-4.44-1.07-12.02-4.01-27.67-2.84-21.38,1.6-40.38,12.43-40.38,12.43l-2.83,11.62,29.39,14.37h0l14.06,6.89.31.15,1.65.8s-.06.06-.09.08c-.44.37-.88.71-1.32,1.05,0,0,0,0-.02.02-2.38,1.77-4.92,3.13-7.54,4.15-.15.06-.3.11-.45.17-7.55,2.77-15.86,2.71-23.54,1.45-.19-.04-.4-.07-.59-.1-2.04-.36-4.03-.8-5.93-1.29,0,0-.03,0-.04,0-6.57-1.79-13.85-4.66-18.37-6.84-1.25-.61-1.98-1.02-2.09-1.07h0S0,58.62,0,58.62h0s.06.03.11.05c.78.3,5.22,1.93,11.79,3.56.05.02.09.03.13.04,7.52,1.87,17.79,3.74,28.58,3.63.05,0,.09,0,.15,0,.03,0,.06,0,.08,0,0,0,0,0,.02,0,.06,0,.1,0,.17,0,9.77-.14,19.96-1.91,28.87-6.78.2-.11.42-.23.63-.34,4.82-2.6,7.18-4.99,7.49-5.33,0-.02.03-.03.04-.04,0-.14,5.23-13.77,5.23-13.77l-38.44-19.12-.8-.4Z"/>
      </g>
    </g>
  </g>
</svg>