<svg width="53" height="20" viewBox="0 0 53 20" fill="none" xmlns="http://www.w3.org/2000/svg">
<g clip-path="url(#clip0_109_730)">
<path d="M0.730591 0H9.20528V2.81573H6.75453V6.94272H3.18798V2.81573H0.730591V0Z" fill="black"/>
<path d="M9.71667 0H17.2682V2.18081H13.0574V2.73292H17.1353V4.1891H13.0574V4.7481H17.3213V6.94272H9.71667V0Z" fill="black"/>
<path d="M17.9323 6.94272V0H21.4989V6.94272H17.9323Z" fill="black"/>
<path d="M30.8569 6.94272H27.3036C27.1509 6.79089 27.0313 6.54244 27.0313 6.08006V5.37612C27.0313 5.05176 26.9118 4.92754 26.6262 4.92754H25.63V6.94272H22.2095V0H27.2704C29.8872 0 30.7905 0.924776 30.7905 2.1187C30.7905 3.31263 29.8208 3.85093 28.8312 4.00966V4.03037C30.1463 4.15459 30.6178 4.61008 30.6178 5.7695V6.07315C30.6178 6.54244 30.6909 6.73568 30.8569 6.93582V6.94272ZM26.8188 3.1401C27.2239 3.1401 27.3701 2.98827 27.3701 2.73982C27.3701 2.49137 27.2239 2.35335 26.8188 2.35335H25.5901V3.1401H26.8188Z" fill="black"/>
<path d="M36.5687 6.94272L36.3296 6.21118H34.2508L34.005 6.94272H30.5912L33.228 0H37.3391L39.9825 6.94272H36.5687ZM35.785 4.09938L35.2802 2.36715L34.7755 4.09938H35.785Z" fill="black"/>
<path d="M48.7295 0V6.94272H45.4352L43.2634 3.96825V6.94272H39.9891V0H43.4693L45.4551 2.81573V0H48.7295Z" fill="black"/>
<path d="M49.4335 6.94272V0H53V6.94272H49.4335Z" fill="black"/>
<path d="M53 8.74396H0V20H53V8.74396Z" fill="#E1351E"/>
<path d="M21.5254 13.8095C21.5254 14.9344 20.9211 15.5624 19.0548 15.5624H18.2445V16.5493H16.066V12.0842H19.0548C20.9211 12.0842 21.5254 12.7122 21.5254 13.8095ZM18.9684 14.1132C19.2142 14.1132 19.3071 14.0234 19.3071 13.8647C19.3071 13.706 19.2142 13.6094 18.9684 13.6094H18.2445V14.1201H18.9684V14.1132Z" fill="white"/>
<path d="M23.8035 15.7143C23.8035 16.3078 23.4648 16.6597 22.6944 16.6597C21.9239 16.6597 21.5852 16.3078 21.5852 15.7143C21.5852 15.1208 21.9239 14.7895 22.6944 14.7895C23.4648 14.7895 23.8035 15.1415 23.8035 15.7143Z" fill="white"/>
<path d="M29.1102 12.0842L27.463 16.5493H24.8263L23.1327 12.0842H25.4374L26.1347 14.2374L26.8055 12.0842H29.1102Z" fill="white"/>
<path d="M31.003 15.7143C31.003 16.3078 30.6643 16.6597 29.8938 16.6597C29.1234 16.6597 28.7847 16.3078 28.7847 15.7143C28.7847 15.1208 29.1234 14.7895 29.8938 14.7895C30.6643 14.7895 31.003 15.1415 31.003 15.7143Z" fill="white"/>
<path d="M34.7422 16.5493L34.5895 16.08H33.2545L33.0951 16.5493H30.8967L32.5903 12.0842H35.2337L36.9339 16.5493H34.7356H34.7422ZM34.2441 14.7205L33.9187 13.6094L33.5932 14.7205H34.2441Z" fill="white"/>
</g>
<defs>
<clipPath id="clip0_109_730">
<rect width="53" height="20" fill="white"/>
</clipPath>
</defs>
</svg>
